<svg xmlns="http://www.w3.org/2000/svg" viewBox="0 0 603 394.27"><defs><style>.cls-1,.cls-2{fill:#fff;}.cls-2{fill-rule:evenodd;}</style></defs><g id="Layer_2" data-name="Layer 2"><g id="Layer_1-2" data-name="Layer 1"><path class="cls-1" d="M12.7,328.89c8.6-11.3,24.8-10.6,30.4-.3.6-.6,1.1-1.2,1.7-1.8,5.7-5.8,12.6-7.6,20.3-5.3,5.8,1.8,9,5.9,9.9,11.8a47.74,47.74,0,0,1,.5,7.6V372c0,.9-.2,1.3-1.2,1.2-3.7-.1-7.5-.1-11.2,0-1,0-1.2-.3-1.2-1.2v-29.2a35.17,35.17,0,0,0-.4-5.6c-.7-5.1-4.5-7.4-9.4-5.9-4.1,1.3-6,4.3-6.8,8.3a45.52,45.52,0,0,0-.7,9V372c0,1.1-.3,1.3-1.4,1.3q-5.55-.15-11.1,0c-.9,0-1.2-.3-1.2-1.2v-30.5a27.37,27.37,0,0,0-.4-5c-.8-4.3-3.6-6.2-7.9-5.6-4.8.7-7.8,3.9-8.5,9.1a59.68,59.68,0,0,0-.5,7.3v24.5c0,1.1-.3,1.3-1.3,1.3-3.8-.1-7.6,0-11.3,0-.8,0-1-.2-1-1v-49.3c0-.8.2-1,1-1H11.5c.8,0,1,.2,1,1A58.17,58.17,0,0,1,12.7,328.89Z"/><path class="cls-1" d="M465.8,329.39a20.84,20.84,0,0,1,9.4-7.6c8.5-3.2,18,.1,23.4,8.1a26.55,26.55,0,0,1,4.1,11.5,40.45,40.45,0,0,1-1.5,18.3,22.48,22.48,0,0,1-8.6,11.5,18.55,18.55,0,0,1-23.4-1.6,26.14,26.14,0,0,1-2.2-2.4,2,2,0,0,0-.3,1.4v22.9c0,1-.1,1.3-1.2,1.3-3.8-.1-7.6-.1-11.3,0-.8,0-1-.2-1-1V323c0-.7.2-1,1-1H465c.8,0,1,.2,1,1C465.8,325,465.8,327,465.8,329.39Zm23.5,18.7c0-3.8-.2-7.1-1.7-10.1-1.8-3.8-4.7-6.3-9.1-6.5-4.6-.2-8,2-10.1,6a15.4,15.4,0,0,0-1.7,6.6c-.3,4.4-.2,8.8,1.7,12.9a10.71,10.71,0,0,0,10.8,6.8c4.3-.3,7.8-3.4,9.1-8.2A25,25,0,0,0,489.3,348.09Z"/><path class="cls-1" d="M78.8,322H92.6c.8,0,.8.5.9,1,2.6,7.7,5.2,15.3,7.7,23,1.4,4,2.7,8.1,4.1,12.1.4-.4.4-.8.6-1.2,3.7-11.2,7.4-22.5,11-33.7a1.48,1.48,0,0,1,1.7-1.2c3.9.1,7.8,0,11.7,0,.7,0,1.1,0,.8.9q-10.65,29.25-21.4,58.5a25.15,25.15,0,0,1-3.8,7c-2.7,3.5-6.5,5-10.7,5.6a35.14,35.14,0,0,1-11.2-.4c-.5-.1-.8-.2-.9-.8-.3-3.1-.7-6.1-1.1-9.2-.1-.7.2-.7.8-.6a21.21,21.21,0,0,0,7.1.3,7.45,7.45,0,0,0,5.1-3.1,20.93,20.93,0,0,0,3-6.2,1.94,1.94,0,0,0-.2-1.5c-6.2-16.4-12.4-32.7-18.6-49.1A6.25,6.25,0,0,0,78.8,322Z"/><path class="cls-1" d="M543.2,373.29l-.1-6.3c-.6.5-2,2-2.6,2.4-6.4,5.3-13.6,6.7-21.5,4.1a14.21,14.21,0,0,1-9.7-13.4c-.2-6.8,3-11.8,8.9-14.4,4-1.7,8.3-2.4,12.5-3.3A79.46,79.46,0,0,0,540,340c.8-.3,1.3-.6,1.1-1.6a5.65,5.65,0,0,1,0-1.3c-.3-3.5-1.7-5.2-5.2-5.9a18.31,18.31,0,0,0-6.6-.1c-3,.5-4.8,2.5-5.8,5.2-.3.8-.6,1.2-1.7,1-3.4-.7-6.7-1.2-10.1-1.7-1-.1-.9-.5-.7-1.3,2.5-8.2,8.2-12.6,16.7-13.4a50.4,50.4,0,0,1,15,.6,17.27,17.27,0,0,1,5.3,2.1c3.6,2.1,6.6,5.2,7.1,9.3.7,5.9.7,40.2.7,40.2Zm-2-24.8c-1.4.4-2.8.7-4.1,1.1-3.3.9-6.6,1.3-9.8,2.6-4.8,1.8-5.8,7-2.3,10.7,2.1,2.1,4.6,2.5,7.4,2,4.3-.8,7.8-4,8.5-8A58.46,58.46,0,0,0,541.2,348.49Z"/><path class="cls-1" d="M323.1,351.49H307.3c-1.1,0-1.3.4-1.2,1.3.4,3.2,1.2,6.3,3.7,8.6a9.93,9.93,0,0,0,9.8,2.6c3.1-.7,4.8-2.9,5.8-5.7.3-.8,1.4-.8,1.4-.8H340s-.7,2.3-1.1,3.2c-3.4,8.2-9.4,12.7-18.2,13.7a33.12,33.12,0,0,1-11.3-.6A20.36,20.36,0,0,1,294.5,361a34.53,34.53,0,0,1,.4-27.3c4-9.2,13.6-14.2,23.6-13,5.8.7,10.9,2.8,14.9,7.2,3.4,3.8,5,8.4,5.9,13.4a56.16,56.16,0,0,1,.7,9.2c0,.8-.2,1-1,1Zm-6.8-8.2h9.2c.7,0,1-.1,1-1a15.62,15.62,0,0,0-1.5-6,9.56,9.56,0,0,0-16-2c-2,2.3-2.6,5-2.8,8,0,.8.2,1,1,1Z"/><path class="cls-1" d="M249.5,329.39a42.63,42.63,0,0,1,3.4-3.7,20.47,20.47,0,0,1,23.1-2.8c4.6,2.5,6.6,6.6,7.2,11.6a47.88,47.88,0,0,1,.3,6.5v30.9c0,1-.2,1.3-1.3,1.3-3.7-.1-7.3-.1-11,0-1,0-1.4-.2-1.4-1.3v-29.6a34.21,34.21,0,0,0-.4-4.6c-.8-4.7-4.4-7.4-9.1-6.7a10.55,10.55,0,0,0-9.4,9.5,80.42,80.42,0,0,0-.5,9.8v21.9c0,.8-.2,1.1-1.1,1.1H237.8c-.8,0-1.1-.1-1.1-1v-49.2c0-.8.2-1,1-1h10.5c.9,0,1.1.3,1.1,1.1C249.4,325.09,249.5,327.09,249.5,329.39Z"/><path class="cls-1" d="M370.2,320.59a32.74,32.74,0,0,1,12.2,1.9c5,2,8.1,5.8,9.8,10.8.2.6,0,.8-.5.8l-11.5,2.1c-.4.1-.6,0-.8-.4-1.2-3.5-3.9-5.1-7.4-5.4a18.32,18.32,0,0,0-8.4.8,3.67,3.67,0,0,0-2.7,2.8c-.3,1.7.5,3,2.4,3.8a64.47,64.47,0,0,0,9.5,2.8c4.9,1.2,9.8,2.3,14.3,4.7a12.44,12.44,0,0,1,6.8,8.8c1.4,7.7-2.5,14.9-9.9,18.2a26.85,26.85,0,0,1-9.6,2.2c-5.5.4-10.9.1-16.1-2a19,19,0,0,1-11.6-12.3l-.9-2.7,13.2-.1s.8,0,1,.6c1.2,4.3,4.3,6.4,8.8,6.9a19.12,19.12,0,0,0,7.5-.6,9.2,9.2,0,0,0,2.8-1.4,4.05,4.05,0,0,0-1.1-7.1c-3.3-1.2-6.7-1.7-10-2.6a86.73,86.73,0,0,1-10.2-3.3c-5.9-2.5-9.3-6.7-9.3-13.2a14.83,14.83,0,0,1,9.3-14C361.5,321,365.7,320.59,370.2,320.59Z"/><path class="cls-1" d="M142.6,352.69v-17.5c0-2.8,0-2.8-3-2.8h-4c-.6,0-.8-.2-.8-.8v-8.8c0-.6.3-.8.9-.8h6c.8,0,1-.2,1-1a66.28,66.28,0,0,1,.4-8.9c.8-6.8,5.9-9.6,10.9-10.5a36.57,36.57,0,0,1,16.1,1c.6.1.8.3.7,1-.6,2.5-1.1,5.1-1.6,7.7-.1.7-.4.9-1.1.7a18.42,18.42,0,0,0-7.4-.4,3.86,3.86,0,0,0-3.6,3.5,42.23,42.23,0,0,0-.3,6.2c0,.7.4.6.9.6h8.6c.8,0,1.1.1,1,1q-.15,4.2,0,8.4c0,.8-.3,1-1,1h-8.4c-.9,0-1.1.3-1.1,1.1,0,12.8,0,25.6.1,38.4,0,1.1-.3,1.4-1.4,1.4q-5.7-.15-11.4,0c-1,0-1.3-.2-1.3-1.2C142.7,365.59,142.6,359.09,142.6,352.69Z"/><path class="cls-1" d="M218.6,308v13c0,.8.2,1.1,1.1,1,2.7-.1,5.4,0,8.1,0,.8,0,1,.1,1,.9v9c0,.8-.3.9-1,.9h-8.1c-.8,0-1.1.1-1.1.9,0,8.1,0,16.2.1,24.3,0,.7.1,1.4.1,2.1.1,2,1.6,3.3,3.9,3.3a18.43,18.43,0,0,0,5.2-1c.7-.2.9,0,1,.6.3,2.9.7,5.7,1,8.6.1.8-.1,1.2-1,1.5-5.4,1.6-11,2.3-16.5.8s-8.1-4.8-8.4-10.5c-.5-8-.1-16-.2-23.9v-5.8c0-.6-.2-.8-.9-.8h-5.1c-.7,0-.9-.2-.9-.8V323c0-.6.2-.9.9-.9h4.9c.8,0,1.1-.2,1.1-1V308Z"/><path class="cls-1" d="M566.7,338v-34.1c0-1,.2-1.2,1.2-1.2,3.8.1,7.6,0,11.3,0,.8,0,1,.2,1,1v68.6c0,.8-.2,1.1-1,1-3.8,0-7.6-.1-11.3,0-1.1,0-1.2-.4-1.2-1.3Z"/><path class="cls-1" d="M190.3,347.59V372c0,1-.2,1.2-1.2,1.2-3.8-.1-7.6,0-11.3,0-.8,0-1.1-.2-1.1-1V323c0-.8.2-1.1,1-1H189c1,0,1.2.2,1.2,1.2C190.3,331.39,190.3,339.49,190.3,347.59Z"/><path class="cls-1" d="M183.7,315.29h-6c-.7,0-.9-.2-.9-.9v-10.9c0-.8.2-.9.9-.9h11.8c.7,0,.9.2.9.9v11c0,.7-.2.9-.9.8Z"/><path class="cls-1" d="M421.9,320.59a32.74,32.74,0,0,1,12.2,1.9c5,2,8.1,5.8,9.8,10.8.2.6,0,.8-.5.8l-11.5,2.1c-.4.1-.6,0-.8-.4-1.2-3.5-3.9-5.1-7.4-5.4a18.32,18.32,0,0,0-8.4.8,3.67,3.67,0,0,0-2.7,2.8c-.3,1.7.5,3,2.4,3.8a64.47,64.47,0,0,0,9.5,2.8c4.9,1.2,9.8,2.3,14.3,4.7a12.44,12.44,0,0,1,6.8,8.8c1.4,7.7-2.5,14.9-9.9,18.2a26.85,26.85,0,0,1-9.6,2.2c-5.5.4-10.9.1-16.1-2a19,19,0,0,1-11.6-12.3l-.9-2.7,13.2-.1s.8,0,1,.6c1.2,4.3,4.3,6.4,8.8,6.9a19.12,19.12,0,0,0,7.5-.6,9.2,9.2,0,0,0,2.8-1.4,4.05,4.05,0,0,0-1.1-7.1c-3.3-1.2-6.7-1.7-10-2.6a86.73,86.73,0,0,1-10.2-3.3c-5.9-2.5-9.3-6.7-9.3-13.2a14.83,14.83,0,0,1,9.3-14C413.2,321,417.3,320.59,421.9,320.59Z"/><path class="cls-1" d="M596.1,303.79v5.8c0,.1,0,.1-.1.1h-1.3c-.1,0-.1,0-.1-.1v-7.2c0-.2,0-.2.2-.2H597c.1,0,.1,0,.1.1s0,.1.1.2c.5,1.4,1,2.8,1.4,4.1a3,3,0,0,1,.2,1v0a8.8,8.8,0,0,1,.5-1.5c.4-1.2.9-2.5,1.3-3.7.1-.2,0-.2.2-.2h2.1c.1,0,.1,0,.1.1v7.1h0c0,.2,0,.2-.2.2h-1.4v-6.1h0v.1a1.85,1.85,0,0,1-.2.7c-.1.3-.2.6-.3,1-.5,1.3-.9,2.7-1.4,4,0,.1,0,.1-.1.2h-1.3c-.2,0-.1,0-.2-.1-.2-.6-.4-1.1-.6-1.7-.4-1-.7-2-1.1-3.1a2.35,2.35,0,0,1-.2-.8c.2.1.1,0,.1,0v0Z"/><path class="cls-1" d="M591.5,306.59v2.9c0,.1,0,.1-.1.1h-1.6a.1.1,0,0,1-.1-.1v-5.8c0-.1,0-.1-.1-.1h-1.8c-.2,0-.2,0-.2-.2v-1.1h5.8c.2,0,.1,0,.1.1v1.2a.1.1,0,0,1-.1.1h-1.9c-.2,0-.2,0-.2.1A12.74,12.74,0,0,1,591.5,306.59Z"/><path class="cls-2" d="M271.5,84.39l-45.8-66.9-11.4-9.4s.2-7.2,3.5-8c3.6-.9,10.3,5.1,9.2,3.2l3.5,10.5L251,39.29l22.9,28,7.2,8.5s3.6,6.1,8.4,4.9,6-8.5,6-8.5-5.4-8.2-4.8-10.9,7.8-3.9,10.8-6.1,8-5.5,12.5-5a17,17,0,0,1,9.9,4.3c4.6,3.7,3,9.2,3,12.9s-7.2,9.7-7.2,9.7L311.3,82l-2.4,6.1,9.6-6.1,9.6-3.6s18.1,0,22.9-1.2,25.3-10.9,25.3-10.9,19.3-4.9,21.7-4.9,7.5-2.4,10.8,0,2.5,3.3,1.2,6.1-2.4,4-4.8,3.6a24.85,24.85,0,0,1-6-2.4L384.7,76l-10.9,2.4-9.6,4.9-15.7,6.1-21.7,6.1s-9.6,10.9-10.9,17-7.2,19.5-7.2,19.5l3.6,8.5s8.4,8.5,9.6,15.8,4.8,4.9,9.6,7.3a136.06,136.06,0,0,1,12,7.3l12,9.7,12,8.5,12,4.9s14.5,3.6,19.3,6.1,20.5,11,20.5,11l10.9,7.3,13.2,3.6h12l4.8,7.3s0,4.9-6,3.6a79.63,79.63,0,0,0-14.5-1.2l-7.2-1.2s-9.6-7.3-14.5-8.5-28.9-8.5-28.9-8.5l-32.5-11s-31.3-13.4-38.6-13.4-19.3-1.2-22.9-1.2-21.7,12.2-21.7,12.2-19.3,9.7-24.1,11-21.7,14.6-27.7,17-21.7,6.1-25.3,7.3-26.5,3.6-26.5,3.6l-8.4,4.9s-5.2,8.7-7.2,9.7-8.3-.3-9.3-1.1-.1-1.8-3.7-1.8-10.9,1.7-12.4,1.8-7.6-1.3-7.9-3.8,12.3-5.9,12.3-5.9l11.5-6.1a47.43,47.43,0,0,1,8.5-3.3c3.5-.8,10.6-2.9,10.6-2.9l25.3-9.7,16.9-7.3s12-11,16.9-13.4,20.5-12.2,20.5-12.2,14.3-9.3,16.9-10.9,8.4-1.2,8.4-6.1,2.4-18.2,2.4-18.2l1.8-18.5s-3-11.9-3-15.5-3.5-9.8,0-14.6,1.2-10.9,1.2-10.9l.4-8.8Z"/></g></g></svg>