<?xml version="1.0" encoding="utf-8"?>
<!-- Generator: Adobe Illustrator 25.1.0, SVG Export Plug-In . SVG Version: 6.00 Build 0)  -->
<svg version="1.1" id="Layer_1" xmlns="http://www.w3.org/2000/svg" xmlns:xlink="http://www.w3.org/1999/xlink" x="0px" y="0px"
	 viewBox="0 0 720 720" style="enable-background:new 0 0 720 720;" xml:space="preserve">
<style type="text/css">
	.st0{fill:#FFFFFF;}
	.st1{fill-rule:evenodd;clip-rule:evenodd;fill:#FFFFFF;}
</style>
<g>
	<g>
		<g>
			<path class="st0" d="M82.4,480.5c8.6-11.3,24.8-10.6,30.4-0.3c0.6-0.6,1.1-1.2,1.7-1.8c5.7-5.8,12.6-7.6,20.3-5.3
				c5.8,1.8,9,5.9,9.9,11.8c0.4,2.5,0.5,5,0.5,7.6c0,10.4,0,20.7,0,31.1c0,0.9-0.2,1.3-1.2,1.2c-3.7-0.1-7.5-0.1-11.2,0
				c-1,0-1.2-0.3-1.2-1.2c0-9.7,0-19.5,0-29.2c0-1.9-0.1-3.7-0.4-5.6c-0.7-5.1-4.5-7.4-9.4-5.9c-4.1,1.3-6,4.3-6.8,8.3
				c-0.6,3-0.7,6-0.7,9c0,7.8,0,15.6,0,23.4c0,1.1-0.3,1.3-1.4,1.3c-3.7-0.1-7.4-0.1-11.1,0c-0.9,0-1.2-0.3-1.2-1.2
				c0-10.2,0-20.3,0-30.5c0-1.7-0.1-3.4-0.4-5c-0.8-4.3-3.6-6.2-7.9-5.6c-4.8,0.7-7.8,3.9-8.5,9.1c-0.3,2.4-0.5,4.9-0.5,7.3
				c0,8.2,0,16.4,0,24.5c0,1.1-0.3,1.3-1.3,1.3c-3.8-0.1-7.6,0-11.3,0c-0.8,0-1-0.2-1-1c0-16.4,0-32.9,0-49.3c0-0.8,0.2-1,1-1
				c3.5,0,7,0,10.5,0c0.8,0,1,0.2,1,1C82.4,476.5,82.4,478.3,82.4,480.5z"/>
			<path class="st0" d="M535.5,481c2.6-3.6,5.6-6.1,9.4-7.6c8.5-3.2,18,0.1,23.4,8.1c2.3,3.5,3.6,7.4,4.1,11.5
				c0.8,6.2,0.5,12.4-1.5,18.3c-1.6,4.8-4.5,8.6-8.6,11.5c-6.3,4.4-16.2,5.2-23.4-1.6c-0.8-0.7-1.4-1.5-2.2-2.4
				c-0.4,0.6-0.3,1-0.3,1.4c0,7.6,0,15.3,0,22.9c0,1-0.1,1.3-1.2,1.3c-3.8-0.1-7.6-0.1-11.3,0c-0.8,0-1-0.2-1-1
				c0-22.9,0-45.9,0-68.8c0-0.7,0.2-1,1-1c3.6,0,7.2,0,10.8,0c0.8,0,1,0.2,1,1C535.5,476.6,535.5,478.6,535.5,481z M559,499.7
				c0-3.8-0.2-7.1-1.7-10.1c-1.8-3.8-4.7-6.3-9.1-6.5c-4.6-0.2-8,2-10.1,6c-1.1,2.1-1.6,4.3-1.7,6.6c-0.3,4.4-0.2,8.8,1.7,12.9
				c2,4.6,6.2,7.2,10.8,6.8c4.3-0.3,7.8-3.4,9.1-8.2C558.8,504.7,559,502,559,499.7z"/>
			<path class="st0" d="M148.5,473.6c4.7,0,9.3,0,13.8,0c0.8,0,0.8,0.5,0.9,1c2.6,7.7,5.2,15.3,7.7,23c1.4,4,2.7,8.1,4.1,12.1
				c0.4-0.4,0.4-0.8,0.6-1.2c3.7-11.2,7.4-22.5,11-33.7c0.3-0.9,0.7-1.2,1.7-1.2c3.9,0.1,7.8,0,11.7,0c0.7,0,1.1,0,0.8,0.9
				c-7.1,19.5-14.2,39-21.4,58.5c-0.9,2.5-2.1,4.8-3.8,7c-2.7,3.5-6.5,5-10.7,5.6c-3.7,0.5-7.5,0.3-11.2-0.4
				c-0.5-0.1-0.8-0.2-0.9-0.8c-0.3-3.1-0.7-6.1-1.1-9.2c-0.1-0.7,0.2-0.7,0.8-0.6c2.4,0.4,4.7,0.7,7.1,0.3c2.1-0.4,3.9-1.3,5.1-3.1
				c1.4-1.9,2.3-4,3-6.2c0.2-0.6,0-1-0.2-1.5c-6.2-16.4-12.4-32.7-18.6-49.1C148.9,474.7,148.7,474.2,148.5,473.6z"/>
			<path class="st0" d="M612.9,524.9l-0.1-6.3c-0.6,0.5-2,2-2.6,2.4c-6.4,5.3-13.6,6.7-21.5,4.1c-5.8-1.9-9.6-7.3-9.7-13.4
				c-0.2-6.8,3-11.8,8.9-14.4c4-1.7,8.3-2.4,12.5-3.3c3.1-0.6,6.2-1.4,9.3-2.4c0.8-0.3,1.3-0.6,1.1-1.6c-0.1-0.4,0-0.9,0-1.3
				c-0.3-3.5-1.7-5.2-5.2-5.9c-2.2-0.4-4.4-0.5-6.6-0.1c-3,0.5-4.8,2.5-5.8,5.2c-0.3,0.8-0.6,1.2-1.7,1c-3.4-0.7-6.7-1.2-10.1-1.7
				c-1-0.1-0.9-0.5-0.7-1.3c2.5-8.2,8.2-12.6,16.7-13.4c5-0.5,10-0.4,15,0.6c1.9,0.4,3.6,1.1,5.3,2.1c3.6,2.1,6.6,5.2,7.1,9.3
				c0.7,5.9,0.7,40.2,0.7,40.2L612.9,524.9z M610.9,500.1c-1.4,0.4-2.8,0.7-4.1,1.1c-3.3,0.9-6.6,1.3-9.8,2.6
				c-4.8,1.8-5.8,7-2.3,10.7c2.1,2.1,4.6,2.5,7.4,2c4.3-0.8,7.8-4,8.5-8C611,505.7,610.9,503,610.9,500.1z"/>
			<path class="st0" d="M392.8,503.1c-5.3,0-10.5,0-15.8,0c-1.1,0-1.3,0.4-1.2,1.3c0.4,3.2,1.2,6.3,3.7,8.6c2.8,2.7,6.1,3.5,9.8,2.6
				c3.1-0.7,4.8-2.9,5.8-5.7c0.3-0.8,1.4-0.8,1.4-0.8l13.2,0c0,0-0.7,2.3-1.1,3.2c-3.4,8.2-9.4,12.7-18.2,13.7
				c-3.8,0.4-7.5,0.3-11.3-0.6c-7.1-1.7-12.2-6-14.9-12.8c-3.6-9.1-3.5-18.3,0.4-27.3c4-9.2,13.6-14.2,23.6-13
				c5.8,0.7,10.9,2.8,14.9,7.2c3.4,3.8,5,8.4,5.9,13.4c0.5,3,0.7,6.1,0.7,9.2c0,0.8-0.2,1-1,1C403.4,503.1,398.1,503.1,392.8,503.1z
				 M386,494.9c3.1,0,6.2,0,9.2,0c0.7,0,1-0.1,1-1c-0.2-2.1-0.5-4.1-1.5-6c-3.1-6.3-11.4-7.4-16-2c-2,2.3-2.6,5-2.8,8
				c0,0.8,0.2,1,1,1C380,494.9,383,494.9,386,494.9z"/>
			<path class="st0" d="M319.2,481c1.2-1.5,2.3-2.6,3.4-3.7c6.2-5.6,15.7-6.8,23.1-2.8c4.6,2.5,6.6,6.6,7.2,11.6
				c0.3,2.2,0.3,4.4,0.3,6.5c0,10.3,0,20.6,0,30.9c0,1-0.2,1.3-1.3,1.3c-3.7-0.1-7.3-0.1-11,0c-1,0-1.4-0.2-1.4-1.3
				c0-9.9,0-19.7,0-29.6c0-1.6-0.2-3.1-0.4-4.6c-0.8-4.7-4.4-7.4-9.1-6.7c-5.2,0.7-8.7,4.3-9.4,9.5c-0.4,3.3-0.5,6.5-0.5,9.8
				c0,7.3,0,14.6,0,21.9c0,0.8-0.2,1.1-1.1,1.1c-3.8,0-7.6,0-11.5,0c-0.8,0-1.1-0.1-1.1-1c0-16.4,0-32.8,0-49.2c0-0.8,0.2-1,1-1
				c3.5,0,7,0,10.5,0c0.9,0,1.1,0.3,1.1,1.1C319.1,476.7,319.2,478.7,319.2,481z"/>
			<path class="st0" d="M439.9,472.2c3.9,0,8.2,0.3,12.2,1.9c5,2,8.1,5.8,9.8,10.8c0.2,0.6,0,0.8-0.5,0.8c-3.8,0.7-7.7,1.4-11.5,2.1
				c-0.4,0.1-0.6,0-0.8-0.4c-1.2-3.5-3.9-5.1-7.4-5.4c-2.9-0.3-5.7-0.2-8.4,0.8c-1.4,0.5-2.4,1.3-2.7,2.8c-0.3,1.7,0.5,3,2.4,3.8
				c3.1,1.3,6.3,2,9.5,2.8c4.9,1.2,9.8,2.3,14.3,4.7c3.6,1.9,6,4.8,6.8,8.8c1.4,7.7-2.5,14.9-9.9,18.2c-3.1,1.4-6.3,2-9.6,2.2
				c-5.5,0.4-10.9,0.1-16.1-2c-5.8-2.3-9.7-6.4-11.6-12.3c-0.3-0.9-0.9-2.7-0.9-2.7l13.2-0.1c0,0,0.8,0,1,0.6
				c1.2,4.3,4.3,6.4,8.8,6.9c2.5,0.3,5,0.1,7.5-0.6c1-0.3,2-0.8,2.8-1.4c2.6-2.2,2-6-1.1-7.1c-3.3-1.2-6.7-1.7-10-2.6
				c-3.5-1-6.9-1.9-10.2-3.3c-5.9-2.5-9.3-6.7-9.3-13.2c-0.1-6.2,3.5-11.5,9.3-14C431.2,472.6,435.4,472.2,439.9,472.2z"/>
			<path class="st0" d="M212.3,504.3c0-5.8,0-11.7,0-17.5c0-2.8,0-2.8-3-2.8c-1.3,0-2.7,0-4,0c-0.6,0-0.8-0.2-0.8-0.8
				c0-2.9,0-5.8,0-8.8c0-0.6,0.3-0.8,0.9-0.8c2,0,4,0,6,0c0.8,0,1-0.2,1-1c0-3,0-5.9,0.4-8.9c0.8-6.8,5.9-9.6,10.9-10.5
				c5.4-1,10.8-0.4,16.1,1c0.6,0.1,0.8,0.3,0.7,1c-0.6,2.5-1.1,5.1-1.6,7.7c-0.1,0.7-0.4,0.9-1.1,0.7c-2.4-0.5-4.9-0.9-7.4-0.4
				c-2.2,0.4-3.2,1.4-3.6,3.5c-0.4,2-0.2,4.1-0.3,6.2c0,0.7,0.4,0.6,0.9,0.6c2.9,0,5.8,0,8.6,0c0.8,0,1.1,0.1,1,1
				c-0.1,2.8-0.1,5.6,0,8.4c0,0.8-0.3,1-1,1c-2.8,0-5.6,0-8.4,0c-0.9,0-1.1,0.3-1.1,1.1c0,12.8,0,25.6,0.1,38.4
				c0,1.1-0.3,1.4-1.4,1.4c-3.8-0.1-7.6-0.1-11.4,0c-1,0-1.3-0.2-1.3-1.2C212.4,517.2,212.3,510.7,212.3,504.3z"/>
			<path class="st0" d="M288.3,459.6c0,0,0,8.6,0,13c0,0.8,0.2,1.1,1.1,1c2.7-0.1,5.4,0,8.1,0c0.8,0,1,0.1,1,0.9c0,3,0,6,0,9
				c0,0.8-0.3,0.9-1,0.9c-2.7,0-5.4,0-8.1,0c-0.8,0-1.1,0.1-1.1,0.9c0,8.1,0,16.2,0.1,24.3c0,0.7,0.1,1.4,0.1,2.1
				c0.1,2,1.6,3.3,3.9,3.3c1.8,0,3.5-0.5,5.2-1c0.7-0.2,0.9,0,1,0.6c0.3,2.9,0.7,5.7,1,8.6c0.1,0.8-0.1,1.2-1,1.5
				c-5.4,1.6-11,2.3-16.5,0.8c-5.5-1.5-8.1-4.8-8.4-10.5c-0.5-8-0.1-16-0.2-23.9c0-2,0-3.9,0-5.8c0-0.6-0.2-0.8-0.9-0.8
				c-1.7,0-3.4,0-5.1,0c-0.7,0-0.9-0.2-0.9-0.8c0-3,0-6.1,0-9.1c0-0.6,0.2-0.9,0.9-0.9c1.6,0,3.3,0,4.9,0c0.8,0,1.1-0.2,1.1-1
				c0-2.7,0-13.1,0-13.1L288.3,459.6z"/>
			<path class="st0" d="M636.4,489.6c0-11.4,0-22.7,0-34.1c0-1,0.2-1.2,1.2-1.2c3.8,0.1,7.6,0,11.3,0c0.8,0,1,0.2,1,1
				c0,22.9,0,45.7,0,68.6c0,0.8-0.2,1.1-1,1c-3.8,0-7.6-0.1-11.3,0c-1.1,0-1.2-0.4-1.2-1.3C636.4,512.2,636.4,500.9,636.4,489.6z"/>
			<path class="st0" d="M260,499.2c0,8.1,0,16.3,0,24.4c0,1-0.2,1.2-1.2,1.2c-3.8-0.1-7.6,0-11.3,0c-0.8,0-1.1-0.2-1.1-1
				c0-16.4,0-32.8,0-49.2c0-0.8,0.2-1.1,1-1c3.8,0,7.6,0,11.3,0c1,0,1.2,0.2,1.2,1.2C260,483,260,491.1,260,499.2z"/>
			<path class="st0" d="M253.4,466.9c-2,0-4,0-6,0c-0.7,0-0.9-0.2-0.9-0.9c0-3.6,0-7.2,0-10.9c0-0.8,0.2-0.9,0.9-0.9
				c3.9,0,7.9,0,11.8,0c0.7,0,0.9,0.2,0.9,0.9c0,3.7,0,7.3,0,11c0,0.7-0.2,0.9-0.9,0.8C257.2,466.9,255.3,466.9,253.4,466.9z"/>
			<path class="st0" d="M491.6,472.2c3.9,0,8.2,0.3,12.2,1.9c5,2,8.1,5.8,9.8,10.8c0.2,0.6,0,0.8-0.5,0.8c-3.8,0.7-7.7,1.4-11.5,2.1
				c-0.4,0.1-0.6,0-0.8-0.4c-1.2-3.5-3.9-5.1-7.4-5.4c-2.9-0.3-5.7-0.2-8.4,0.8c-1.4,0.5-2.4,1.3-2.7,2.8c-0.3,1.7,0.5,3,2.4,3.8
				c3.1,1.3,6.3,2,9.5,2.8c4.9,1.2,9.8,2.3,14.3,4.7c3.6,1.9,6,4.8,6.8,8.8c1.4,7.7-2.5,14.9-9.9,18.2c-3.1,1.4-6.3,2-9.6,2.2
				c-5.5,0.4-10.9,0.1-16.1-2c-5.8-2.3-9.7-6.4-11.6-12.3c-0.3-0.9-0.9-2.7-0.9-2.7l13.2-0.1c0,0,0.8,0,1,0.6
				c1.2,4.3,4.3,6.4,8.8,6.9c2.5,0.3,5,0.1,7.5-0.6c1-0.3,2-0.8,2.8-1.4c2.6-2.2,2-6-1.1-7.1c-3.3-1.2-6.7-1.7-10-2.6
				c-3.5-1-6.9-1.9-10.2-3.3c-5.9-2.5-9.3-6.7-9.3-13.2c-0.1-6.2,3.5-11.5,9.3-14C482.9,472.6,487,472.2,491.6,472.2z"/>
		</g>
		<g>
			<path class="st0" d="M665.8,455.4c0,0.2,0,0.4,0,0.6c0,0.5,0,1,0,1.6c0,1.1,0,2.3,0,3.5c0,0,0,0.1,0,0.1c0,0.1,0,0.1-0.1,0.1
				c-0.3,0-1.2,0-1.3,0c-0.1,0-0.1,0-0.1-0.1c0,0,0,0,0-0.1c0-2.4,0-4.7,0-7.1c0-0.2,0-0.2,0.2-0.2c0.7,0,1.4,0,2.1,0
				c0,0,0.1,0,0.1,0c0.1,0,0.1,0,0.1,0.1c0,0.1,0,0.1,0.1,0.2c0.5,1.4,1,2.8,1.4,4.1c0.1,0.3,0.2,0.6,0.2,1c0,0,0,0,0,0.1
				c0,0,0,0,0-0.1c0.1-0.5,0.3-1,0.5-1.5c0.4-1.2,0.9-2.5,1.3-3.7c0.1-0.2,0-0.2,0.2-0.2c0.7,0,1.3,0,2,0c0,0,0.1,0,0.1,0
				c0.1,0,0.1,0,0.1,0.1c0,0,0,0.1,0,0.1c0,2.3,0,4.7,0,7c0,0,0,0,0,0c0,0.2,0,0.2-0.2,0.2c-0.4,0-0.9,0-1.3,0c0,0-0.1,0-0.1,0
				c0,0,0,0,0,0s0-0.1,0-0.1c0-1.6,0-3.2,0-4.8c0-0.3,0-0.6,0-1c0,0,0,0,0-0.1c0,0,0,0,0-0.1c0,0,0,0,0,0c0,0,0,0,0,0c0,0,0,0,0,0.1
				c0,0.2-0.1,0.5-0.2,0.7c-0.1,0.3-0.2,0.6-0.3,1c-0.5,1.3-0.9,2.7-1.4,4c0,0.1,0,0.1-0.1,0.2c0,0,0,0-0.1,0c0,0,0,0-0.1,0
				c-0.4,0-0.8,0-1.1,0c-0.2,0-0.1,0-0.2-0.1c-0.2-0.6-0.4-1.1-0.6-1.7c-0.4-1-0.7-2-1.1-3.1c-0.1-0.3-0.2-0.5-0.2-0.8
				C665.9,455.5,665.8,455.4,665.8,455.4c0-0.1,0-0.1,0-0.2C665.8,455.3,665.8,455.3,665.8,455.4z"/>
			<path class="st0" d="M661.2,458.2c0,0.9,0,1.9,0,2.8c0,0,0,0.1,0,0.1c0,0.1,0,0.1-0.1,0.1c0,0,0,0-0.1,0c-0.5,0-0.9,0-1.4,0
				c0,0,0,0-0.1,0c0,0-0.1,0-0.1-0.1c0,0,0-0.1,0-0.1c0-1.9,0-3.8,0-5.6c0,0,0-0.1,0-0.1c0-0.1,0-0.1-0.1-0.1c-0.6,0-1.2,0-1.8,0
				c-0.2,0-0.2,0-0.2-0.2c0-0.3,0-0.7,0-1c0,0,0-0.1,0-0.1c0,0,0,0,0,0c0,0,0,0,0.1,0c1.9,0,3.8,0,5.7,0c0.2,0,0.1,0,0.1,0.1
				c0,0.4,0,0.7,0,1.1c0,0,0,0,0,0.1c0,0,0,0.1-0.1,0.1c0,0-0.1,0-0.1,0c-0.6,0-1.2,0-1.8,0c-0.2,0-0.2,0-0.2,0.1
				C661.2,456.3,661.2,457.2,661.2,458.2z"/>
		</g>
	</g>
	<path class="st1" d="M341.2,236l-45.8-66.9l-11.4-9.4c0,0,0.2-7.2,3.5-8c3.6-0.9,10.3,5.1,9.2,3.2l3.5,10.5l20.5,25.5l22.9,28
		l7.2,8.5c0,0,3.6,6.1,8.4,4.9c4.8-1.2,6-8.5,6-8.5s-5.4-8.2-4.8-10.9s7.8-3.9,10.8-6.1s8-5.5,12.5-5s6.9,1.9,9.9,4.3
		c4.6,3.7,3,9.2,3,12.9c0,3.6-7.2,9.7-7.2,9.7l-8.4,4.9l-2.4,6.1l9.6-6.1l9.6-3.6c0,0,18.1,0,22.9-1.2s25.3-10.9,25.3-10.9
		s19.3-4.9,21.7-4.9s7.5-2.4,10.8,0c3.4,2.4,2.5,3.3,1.2,6.1c-1.3,2.8-2.4,4-4.8,3.6c-2.4-0.4-6-2.4-6-2.4l-14.5,7.3l-10.9,2.4
		l-9.6,4.9l-15.7,6.1l-21.7,6.1c0,0-9.6,10.9-10.9,17c-1.2,6.1-7.2,19.5-7.2,19.5l3.6,8.5c0,0,8.4,8.5,9.6,15.8
		c1.2,7.3,4.8,4.9,9.6,7.3c4.8,2.4,12,7.3,12,7.3l12,9.7l12,8.5l12,4.9c0,0,14.5,3.6,19.3,6.1c4.8,2.4,20.5,11,20.5,11l10.9,7.3
		l13.2,3.6h12l4.8,7.3c0,0,0,4.9-6,3.6s-14.5-1.2-14.5-1.2l-7.2-1.2c0,0-9.6-7.3-14.5-8.5s-28.9-8.5-28.9-8.5l-32.5-11
		c0,0-31.3-13.4-38.6-13.4c-7.2,0-19.3-1.2-22.9-1.2c-3.6,0-21.7,12.2-21.7,12.2s-19.3,9.7-24.1,11c-4.8,1.2-21.7,14.6-27.7,17
		s-21.7,6.1-25.3,7.3c-3.6,1.2-26.5,3.6-26.5,3.6l-8.4,4.9c0,0-5.2,8.7-7.2,9.7c-2.1,1-8.3-0.3-9.3-1.1c-1-0.9-0.1-1.8-3.7-1.8
		c-3.6,0-10.9,1.7-12.4,1.8c-1.4,0.1-7.6-1.3-7.9-3.8c-0.3-2.5,12.3-5.9,12.3-5.9l11.5-6.1c0,0,5.2-2.6,8.5-3.3
		c3.5-0.8,10.6-2.9,10.6-2.9l25.3-9.7l16.9-7.3c0,0,12-11,16.9-13.4c4.8-2.4,20.5-12.2,20.5-12.2s14.3-9.3,16.9-10.9
		c2.5-1.6,8.4-1.2,8.4-6.1c0-4.9,2.4-18.2,2.4-18.2l1.8-18.5c0,0-3-11.9-3-15.5c0-3.6-3.5-9.8,0-14.6c3.5-4.8,1.2-10.9,1.2-10.9
		L341.2,236L341.2,236z"/>
</g>
</svg>
